<?xml version="1.0" encoding="UTF-8" standalone="no"?>
<svg
   class="svg-icon"
   style="width: 1em; height: 1em;vertical-align: middle;fill: currentColor;overflow: hidden;"
   viewBox="0 0 1024 1024"
   version="1.1"
   id="svg3"
   sodipodi:docname="career-nautical-chart-bold.svg"
   inkscape:version="1.3.2 (091e20e, 2023-11-25)"
   xmlns:inkscape="http://www.inkscape.org/namespaces/inkscape"
   xmlns:sodipodi="http://sodipodi.sourceforge.net/DTD/sodipodi-0.dtd"
   xmlns="http://www.w3.org/2000/svg"
   xmlns:svg="http://www.w3.org/2000/svg">
  <defs
     id="defs3" />
  <sodipodi:namedview
     id="namedview3"
     pagecolor="#ffffff"
     bordercolor="#000000"
     borderopacity="0.25"
     inkscape:showpageshadow="2"
     inkscape:pageopacity="0.0"
     inkscape:pagecheckerboard="0"
     inkscape:deskcolor="#d1d1d1"
     inkscape:zoom="0.7766624"
     inkscape:cx="551.71977"
     inkscape:cy="485.41039"
     inkscape:window-width="1664"
     inkscape:window-height="997"
     inkscape:window-x="466"
     inkscape:window-y="25"
     inkscape:window-maximized="0"
     inkscape:current-layer="svg3" />
  <path
     d="m 931.91744,344.4736 c 0,-134.0416 -119.04576,-251.0976 -253.0976,-251.0976 -72.99072,0 -140.83087,24.69327 -185.42607,75.78063 l -36.00369,-62.06671 c -2.50377,-5.06823 -8.63807,-7.152705 -13.71136,-4.6592 L 107.79648,267.97056 c -5.07283,2.49974 -7.1588,8.63846 -4.6592,13.71136 l 313.07776,635.22816 c 2.50377,5.06823 8.63807,7.15271 13.71136,4.6592 L 765.80864,756.0192 c 5.06823,-2.50377 7.15271,-8.63807 4.6592,-13.71136 L 699.94432,595.04896 C 826.96128,587.20512 931.91744,473.43616 931.91744,344.4736 Z M 258.2208,527.6704 c 3.2658,-1.5148 2.76602,-5.93972 6.20345,-7.00938 5.41505,-1.63158 5.35372,-6.59172 3.72214,-12.00676 -1.63159,-5.41504 -6.95065,-12.80877 -12.3657,-11.17719 -4.4544,1.34144 -6.74526,2.3419 -11.09726,4.3387 L 138.03392,287.81504 437.5456,137.31712 l 32.67995,56.11977 c -29.87075,41.27952 -46.09579,96.94788 -46.0575,147.90138 0,44.15488 10.21882,90.24472 30.88314,125.97208 -10.28096,7.13728 -36.81557,20.0514 -56.24085,71.83508 -9.10192,-6.84372 -14.36939,-9.33324 -23.85926,-15.62799 -5.56967,-1.20734 -13.81096,3.51958 -16.9186,8.24466 -3.10764,4.72509 -2.03613,17.6941 2.68896,20.80174 11.15031,7.41072 19.99705,15.1941 30.62448,23.33696 -4.9014,20.02169 -6.67342,38.68153 -5.25312,59.24544 4.92544,75.44832 -7.21689,97.07324 -19.62777,110.5286 z m 434.83648,116.0224 46.51392,94.48192 -303.60055,146.49792 -51.9517,-104.20062 c 15.16544,-13.3632 40.53401,-54.61986 34.53337,-146.64674 -6.06208,-92.76416 41.28711,-127.8802 54.82439,-137.42388 42.60864,61.16352 116.45433,96.53812 195.90649,98.97524 l 12.73216,21.95584 c -10.51489,5.40393 -17.1636,11.26913 -28.24301,15.3937 -5.47841,1.82544 -6.54155,10.72879 -4.55424,16.15058 1.98731,5.42178 8.06214,8.12892 13.42253,5.98148 11.76253,-4.36885 19.255,-5.43292 30.41664,-11.16544 z m -14.23744,-78.6016 c -122.74688,0 -220.6176,-97.87072 -220.6176,-220.6176 0,-122.74688 97.86048,-220.6176 220.6176,-220.6176 122.74688,0 220.6176,97.86048 220.6176,220.6176 0,122.74688 -97.87072,220.6176 -220.6176,220.6176 z"
     id="path1"
     sodipodi:nodetypes="ssccccccccccsccscccccccccsccccccccccccccsccsssss" />
  <path
     d="m 617.80992,642.21568 c -11.65298,2.24941 -23.49071,3.40473 -35.35872,3.45088 h -0.0614 l -3.21536,-0.041 c -5.61196,0.007 -10.21525,8.44761 -10.42432,14.05568 -0.10272,5.65576 4.39989,10.32343 10.05568,10.42432 l 3.57376,0.0307 h 0.0717 c 13.14633,-0.0435 26.25965,-1.31883 39.168,-3.80928 5.55657,-1.0545 9.20604,-6.41408 8.15104,-11.97056 -1.02856,-5.56789 -6.40322,-13.22616 -11.96032,-12.1408 z M 338.71695,506.57715 c -14.75584,-6.8608 -30.05263,-10.61264 -43.34415,-12.62992 -5.59319,-0.84831 -10.81505,8.35334 -11.66336,13.94653 -0.8483,5.59319 3.55737,12.49264 9.15056,13.34095 11.33568,1.71008 22.57296,3.80081 35.5368,9.83217 5.12945,2.38658 11.22238,0.16304 13.60896,-4.9664 2.38657,-5.12945 1.84064,-17.13675 -3.28881,-19.52333 z m 103.62353,74.31437 c -4.45645,-3.47807 -12.88865,-0.68493 -16.36672,3.77152 -3.47806,4.45645 -2.68493,12.88865 1.77152,16.36672 12.288,9.60512 22.59968,17.52064 32.94208,25.00608 4.5755,3.33653 10.99311,0.30677 14.29504,-4.29376 3.31852,-4.57981 2.29101,-14.98338 -2.29376,-18.29504 -10.93006,-7.98923 -19.71455,-14.17575 -30.34816,-22.55552 z m 103.42759,59.89491 -7.25671,-3.20243 c -9.96352,-2.88768 -18.95438,-4.03251 -30.8635,-10.78067 -4.9202,-2.79094 -12.79932,1.40032 -15.59026,6.32051 -2.79093,4.9202 0.1102,15.17375 5.0304,17.96469 13.312,7.54688 24.20992,8.83851 35.68896,12.16651 l 3.10272,0.8704 c 5.4497,1.52879 13.0849,-1.79139 14.544,-7.26016 1.45909,-5.46877 0.52265,-13.79366 -4.65561,-16.07885 z M 678.81984,147.8112 c -107.33568,0 -196.65216,89.31648 -196.65216,196.65216 0,107.33568 89.31648,196.6624 196.65216,196.6624 107.33568,0 196.65216,-89.32672 196.65216,-196.6624 0,-107.32544 -89.31648,-196.65216 -196.65216,-196.65216 z m 131.80928,296.18304 -12.93872,-9.86328 c -4.49694,-3.42805 -13.46042,-1.01894 -17.45879,2.97942 -3.99836,3.99837 -5.98465,14.45356 -1.98628,18.45193 l 15.10933,13.61961 c -19.72625,21.38048 -93.62562,50.57686 -94.22648,39.88354 l -0.99314,-17.67474 c -0.31728,-5.64649 -12.5846,-10.24 -18.24,-10.24 -5.6554,0 -14.24,4.5846 -14.24,10.24 l -2,18.79424 c -38.27739,-1.95115 -93.97288,-29.14118 -87.91552,-35.50272 l 10.98134,-11.53278 c 3.89927,-4.09508 1.01894,-14.95013 -2.97942,-18.9485 -3.99837,-3.99836 -15.94327,-9.97094 -19.94164,-5.97257 l -12.76492,10.19977 C 522.89264,418.05514 506.1545,357.03117 517.48217,356.69428 l 16.69698,-0.49657 c 5.6529,-0.16812 9.24686,-9.05374 9.24686,-14.70914 0,-5.6554 -2.59832,-15.21942 -8.25372,-15.21942 l -22.82143,0 c 3.04751,-38.69038 11.99002,-60.75442 38.28466,-89.29955 l 16.14371,13.60598 c 3.99164,4.01456 12.97057,-0.96486 16.96221,-4.97942 4.00317,-3.99637 9.96202,-10.97956 5.95885,-14.97593 l -14.41133,-17.95591 c 29.15758,-25.19034 87.41356,-45.00489 87.86951,-35.40551 l 1.03429,21.77579 c 0.26832,5.64903 10.04688,8.25372 15.70228,8.25372 5.6554,0 16.70914,-2.59832 16.70914,-8.25372 l 1.02057,-23.16658 c 39.7577,2.55992 61.92884,15.75002 91.14965,42.83086 l -14.65552,13.71376 c -4.12882,3.86351 -0.52236,13.95699 3.476,17.95536 3.99837,3.99836 12.46727,6.48122 16.46564,2.48285 l 14.48163,-11.46105 c 23.94641,27.90401 43.15513,83.56041 33.25348,83.86901 l -15.93273,0.49657 c -5.65265,0.17618 -9.23314,9.59146 -9.23314,15.24686 0,5.6554 4.5846,14.24 10.24,14.24 h 19.78432 c -1.47238,39.32527 -30.45135,93.0008 -36.02496,88.752 z"
     id="path2"
     sodipodi:nodetypes="cccccccccccccscsscccccccccscscccscscssscsssccsssccsssccssscccccccssscccssccsssccs" />
  <path
     d="m 747.43703,255.51023 -101.84019,42.86035 c -1.90282,0.98131 -9.31654,8.7137 -10.29785,10.61652 l -47.67985,105.83076 c -4.56631,8.86053 10.1377,26.6875 18.99823,22.12119 l 108.0509,-49.52369 c 1.90464,-0.98304 5.95494,-3.26082 6.93798,-5.16546 l 49.0032,-103.05699 c 4.54086,-8.86177 -14.31402,-28.23012 -23.17242,-23.68268 z m -49.08951,109.16689 -75.8784,38.9632 34.63732,-79.3391 80.20428,-35.5025 z"
     id="path3"
     sodipodi:nodetypes="cccccccccccccc" />
</svg>
