<?xml version="1.0" encoding="UTF-8" standalone="no"?>
<!-- Created with Inkscape (http://www.inkscape.org/) -->

<svg
   width="194.69359mm"
   height="115.29925mm"
   viewBox="0 0 194.69359 115.29925"
   version="1.1"
   id="svg1"
   xml:space="preserve"
   sodipodi:docname="first-view-devices.svg"
   inkscape:version="1.3.2 (091e20e, 2023-11-25)"
   xmlns:inkscape="http://www.inkscape.org/namespaces/inkscape"
   xmlns:sodipodi="http://sodipodi.sourceforge.net/DTD/sodipodi-0.dtd"
   xmlns="http://www.w3.org/2000/svg"
   xmlns:svg="http://www.w3.org/2000/svg"><sodipodi:namedview
     id="namedview1"
     pagecolor="#ffffff"
     bordercolor="#000000"
     borderopacity="0.25"
     inkscape:showpageshadow="2"
     inkscape:pageopacity="0.0"
     inkscape:pagecheckerboard="true"
     inkscape:deskcolor="#d1d1d1"
     inkscape:document-units="mm"
     inkscape:zoom="0.90828136"
     inkscape:cx="448.64952"
     inkscape:cy="210.28726"
     inkscape:window-width="1680"
     inkscape:window-height="997"
     inkscape:window-x="0"
     inkscape:window-y="25"
     inkscape:window-maximized="0"
     inkscape:current-layer="g3" /><defs
     id="defs1"><style
       type="text/css"
       id="style1">@media (prefers-color-scheme: dark) {
svg.ge-export-svg-auto { filter: invert(100%) hue-rotate(180deg); }
svg.ge-export-svg-auto foreignObject img,
svg.ge-export-svg-auto image:not(svg.ge-export-svg-auto switch image),
svg.ge-export-svg-auto svg { filter: invert(100%) hue-rotate(180deg) }
}</style><inkscape:path-effect
       effect="spiro"
       id="path-effect4"
       is_visible="true"
       lpeversion="1" /><inkscape:path-effect
       effect="bspline"
       id="path-effect3"
       is_visible="true"
       lpeversion="1.3"
       weight="33.333333"
       steps="2"
       helper_size="0"
       apply_no_weight="true"
       apply_with_weight="true"
       only_selected="false"
       uniform="false" /><style
       type="text/css"
       id="style1-8">@media (prefers-color-scheme: dark) {
svg.ge-export-svg-auto { filter: invert(100%) hue-rotate(180deg); }
svg.ge-export-svg-auto foreignObject img,
svg.ge-export-svg-auto image:not(svg.ge-export-svg-auto switch image),
svg.ge-export-svg-auto svg { filter: invert(100%) hue-rotate(180deg) }
}</style><style
       type="text/css"
       id="style1-0">@media (prefers-color-scheme: dark) {
svg.ge-export-svg-auto { filter: invert(100%) hue-rotate(180deg); }
svg.ge-export-svg-auto foreignObject img,
svg.ge-export-svg-auto image:not(svg.ge-export-svg-auto switch image),
svg.ge-export-svg-auto svg { filter: invert(100%) hue-rotate(180deg) }
svg.ge-export-svg-auto { background-color: #000000 !important; }
}</style><clipPath
       clipPathUnits="userSpaceOnUse"
       id="clipPath20"><path
         d="M 35.816117,200.33029 C 18.60522,199.02485 5.7265866,184.24272 7.0656487,167.38725 c -0.1575369,-8.6005 3.3082713,-16.85547 9.6491273,-22.76831 6.301474,-5.95125 14.847846,-9.02286 23.591143,-8.48533 5.55317,-10.48188 17.880425,-15.70361 29.498768,-12.44003 -0.66953,-16.27954 9.215901,-31.17685 24.615117,-37.204887 17.171486,-5.183346 35.406366,3.877911 41.235226,20.503007 11.06696,-7.448661 25.91481,-6.56557 35.95778,2.11173 10.83066,8.48533 15.9506,22.154 13.31187,35.47711 11.06696,5.14495 17.72289,16.5483 16.62013,28.52759 -0.63015,13.78386 -11.10635,25.22561 -25.00897,27.22216 z"
         fill="#00188d"
         stroke="none"
         pointer-events="all"
         id="path20"
         style="fill:#05fffd;fill-opacity:1;stroke:#000000;stroke-width:0.101603;stroke-dasharray:none;stroke-opacity:1" /></clipPath></defs><g
     inkscape:label="Layer 1"
     inkscape:groupmode="layer"
     id="layer1"
     clip-path="url(#clipPath20)"
     transform="translate(-6.9700027,-85.031045)"><rect
       style="fill:#f6f6f0;fill-opacity:1;stroke:#141c3a;stroke-width:1.3;stroke-dasharray:none;stroke-opacity:1;paint-order:stroke fill markers"
       id="rect20"
       width="233.63863"
       height="141.89012"
       x="-9.5377636"
       y="63.477161"
       rx="1.3859959"
       inkscape:label="Background" /><g
       inkscape:label="Monitor"
       id="layer1-8"
       transform="matrix(0.33908016,0,0,0.30929056,69.288261,110.69633)"><path
         d="M 233.89007,32.014583 H -23.810912 c -2.046645,0 -3.898884,0.828894 -5.239568,2.168895 -1.341093,1.340408 -2.170358,3.192269 -2.170358,5.237792 v 176.48037 c 0,2.04445 0.829574,3.89649 2.171012,5.23725 1.34086,1.34017 3.193068,2.16944 5.238914,2.16944 H 233.89007 c 2.04663,0 3.89887,-0.82889 5.23957,-2.1689 1.34109,-1.3404 2.17035,-3.19226 2.17035,-5.23779 V 39.42127 c 0,-2.044451 -0.82957,-3.896492 -2.17101,-5.237244 -1.34086,-1.340176 -3.19307,-2.169443 -5.23891,-2.169443 z"
         id="Case"
         stroke="#141c3a"
         stroke-width="2.11667"
         fill="#ffffff"
         style="stroke-width:2.1615412;stroke-dasharray:none" /><path
         d="M 228.96084,41.224048 H -18.372112 c -0.931468,0 -1.775646,0.443146 -2.386761,1.160184 -0.610206,0.715967 -0.987916,1.704917 -0.987916,2.797279 V 208.9941 c 0,1.09255 0.377575,2.08161 0.987789,2.79759 0.610862,0.71673 1.454797,1.15987 2.386888,1.15987 H 228.96084 c 0.93146,0 1.77565,-0.44315 2.38678,-1.16017 0.61017,-0.71597 0.9879,-1.70493 0.9879,-2.79729 V 45.181511 c 0,-1.092544 -0.37758,-2.081605 -0.9878,-2.797585 -0.61084,-0.716742 -1.45479,-1.159878 -2.38688,-1.159878 z"
         id="path1"
         stroke="#6e07f3"
         stroke-width="2.43633"
         fill="#6e07f3"
         style="fill:#827081;fill-opacity:1;stroke:#827081;stroke-opacity:1" /><path
         d="M 135.8672,223.4889 H 75.612017 l -0.185123,33.77011 h 60.285366 z"
         id="path2"
         stroke="#141c3a"
         stroke-width="2.61261"
         fill="#ffffff"
         inkscape:label="path2"
         style="stroke-width:2.1615412;stroke-dasharray:none"
         sodipodi:nodetypes="ccccc" /><path
         d="M 143.4036,265.11249 H 66.940122 c -0.0731,0 -0.139261,-0.0295 -0.1871,-0.0774 -0.04846,-0.0485 -0.07803,-0.11568 -0.07803,-0.18965 V 261.276 c 0,-1.05953 0.429485,-2.01855 1.123886,-2.71274 0.694614,-0.69437 1.654263,-1.12371 2.714236,-1.12371 h 69.317506 c 1.05963,0 2.01924,0.42957 2.71396,1.12405 0.69443,0.69419 1.12416,1.65315 1.12416,2.7124 v 3.56944 c 0,0.0741 -0.0291,0.1413 -0.0774,0.18975 -0.048,0.0481 -0.11449,0.0773 -0.1877,0.0773 z"
         id="Keyboard"
         stroke="#141c3a"
         stroke-width="2.11667"
         fill="#ffffff"
         style="stroke-width:2.1615412;stroke-dasharray:none" /></g><g
       inkscape:label="Laptop"
       id="layer1-6"
       transform="matrix(0.30305751,0,0,0.34007332,116.92412,141.08763)"><path
         d="M 198.70454,9.2604197 H 17.724599 c -2.045626,0 -3.896995,0.8291503 -5.23703,2.1696883 -1.340088,1.340591 -2.168816,3.192702 -2.168816,5.238541 V 133.35025 c 0,2.04457 0.829072,3.89691 2.169584,5.23793 1.34022,1.34072 3.191509,2.17029 5.236262,2.17029 H 198.70454 c 2.04563,0 3.897,-0.82915 5.23703,-2.16968 1.34009,-1.3406 2.16885,-3.1927 2.16885,-5.23854 V 16.668649 c 0,-2.044569 -0.8291,-3.896918 -2.16961,-5.237959 -1.3402,-1.340697 -3.19149,-2.1702703 -5.23627,-2.1702703 z"
         id="path6"
         stroke="#141c3a"
         stroke-width="2.11667"
         fill="#ffffff"
         style="stroke-width:2.11816656;stroke-dasharray:none" /><path
         d="M 219.34175,140.75847 H -2.9126093 c -0.072258,0 -0.1375833,0.0295 -0.1849173,0.0769 -0.047942,0.048 -0.07747,0.11441 -0.07747,0.18767 v 5.29166 c 0,1.53454 0.6219825,2.92349 1.6276373,3.92886 1.00586642,1.0056 2.39553744,1.62739 3.9305176,1.62739 H 214.04601 c 1.53493,0 2.92449,-0.6219 3.93033,-1.62745 1.00577,-1.00547 1.62783,-2.3945 1.62783,-3.9288 v -5.29166 c 0,-0.0732 -0.03,-0.13944 -0.078,-0.18749 -0.0472,-0.0473 -0.11229,-0.0771 -0.18447,-0.0771 z"
         id="path7"
         stroke="#141c3a"
         stroke-width="2.11667"
         fill="#ffffff"
         style="stroke-width:2.11816656;stroke-dasharray:none" /><path
         d="m 122.84342,140.87714 -29.628857,1.3e-4 c 0.515699,1.35859 1.381945,2.54426 2.487797,3.44713 1.412399,1.15316 3.216355,1.84435 5.18171,1.84435 h 14.29022 c 1.96469,0 3.76849,-0.69143 5.18094,-1.84467 1.10588,-0.90292 1.97234,-2.08854 2.48819,-3.44694 z"
         id="Notch"
         stroke="#141c3a"
         stroke-width="2.11667"
         fill="#ffffff"
         style="stroke-width:2.11816656;stroke-dasharray:none" /><rect
         id="Screen"
         fill="#5be9b9"
         x="17.99165"
         y="16.987171"
         width="180.28882"
         height="112.61888"
         rx="2.1166666"
         style="stroke-width:0.268978;fill:#2ca58d;fill-opacity:1" /></g><g
       id="Group-69"
       transform="matrix(0.08556344,0,0,0.09327701,58.039233,101.80924)"
       inkscape:label="Terminal-black"><circle
         id="Oval-3"
         fill="#293347"
         cx="282"
         cy="197"
         r="5" /><path
         d="M 450,59 H 4 v 435.00148 c 0,5.52509 2.2381937,10.52388 5.8575244,14.14169 C 13.478772,511.76289 18.48219,514 24.008624,514 H 429.99138 c 5.52603,0 10.52831,-2.23829 14.14908,-5.85754 C 447.76091,504.52354 450,499.52395 450,494.00148 Z"
         id="path8"
         stroke="#141c3a"
         stroke-width="8"
         fill="#141c3a"
         style="stroke-width:7.83549817;stroke-dasharray:none" /><path
         d="M 429.99138,4 H 24.008624 C 18.482692,4 13.480542,6.2388067 9.8598485,9.8587715 6.2391653,13.478726 4,18.479773 4,24.003794 V 51 H 450 V 24.003794 C 450,18.481408 447.75992,13.480288 444.13876,9.8598561 440.51796,6.239786 435.51619,4 429.99138,4 Z"
         id="path9"
         stroke="#141c3a"
         stroke-width="8"
         fill="#ffffff"
         style="stroke-width:7.49969109;stroke-dasharray:none" /><circle
         id="Oval-5"
         fill="#141c3a"
         cx="39"
         cy="28"
         r="9" /><circle
         id="circle9"
         fill="#6e07f3"
         cx="69"
         cy="28"
         r="9"
         style="fill:#827081;fill-opacity:1" /><circle
         id="circle10"
         fill="#5be9b9"
         cx="99"
         cy="28"
         r="9"
         style="fill:#2ca58d;fill-opacity:1" /><g
         id="Group-72"
         transform="translate(52,143)"><rect
           id="rect10"
           fill="#535b6b"
           opacity="0.54"
           x="0"
           y="206.71516"
           width="48.523441"
           height="7.3895311"
           rx="4" /><rect
           id="rect11"
           fill="#535b6b"
           opacity="0.54"
           x="0.30523443"
           y="-0.9157033"
           width="48.523438"
           height="7.0842967"
           rx="4" /><rect
           id="rect11-8"
           fill="#535b6b"
           opacity="0.54"
           x="0.57852572"
           y="40.154308"
           width="47.912971"
           height="7.6947656"
           rx="4" /><rect
           id="rect15"
           fill="#535b6b"
           opacity="0.54"
           x="-0.30523443"
           y="82.136642"
           width="49.133911"
           height="7.3895316"
           rx="4" /><rect
           id="rect16"
           fill="#535b6b"
           opacity="0.54"
           x="0"
           y="123.51019"
           width="49.133911"
           height="7.6947575"
           rx="4"
           style="stroke-width:0.962546" /><rect
           id="rect17"
           fill="#535b6b"
           opacity="0.54"
           x="-0.30523443"
           y="165.18898"
           width="49.439144"
           height="7.3895311"
           rx="4" /><rect
           id="rect18"
           fill="#535b6b"
           opacity="0.54"
           x="-0.30523443"
           y="248.54657"
           width="49.439148"
           height="7.3895264"
           rx="4" /><rect
           id="rect19"
           fill="#535b6b"
           opacity="0.54"
           x="0.61046886"
           y="290.07272"
           width="47.912975"
           height="7.3895311"
           rx="4" /><rect
           id="rect21"
           fill="#5be9b9"
           x="139.91298"
           y="40"
           width="90.087029"
           height="8"
           rx="3.7659853"
           style="stroke-width:0.866444;fill:#2ca58d;fill-opacity:1" /><rect
           id="rect21-1"
           fill="#5be9b9"
           x="139.91335"
           y="-1.4616628"
           width="75.194519"
           height="7.5683331"
           rx="3.7659853"
           style="stroke-width:0.866444;fill:#2ca58d;fill-opacity:1" /><rect
           id="rect22"
           fill="#6e07f3"
           x="241.9425"
           y="40.431667"
           width="50"
           height="8"
           rx="4"
           style="fill:#827081;fill-opacity:1" /><rect
           id="rect22-5"
           fill="#6e07f3"
           x="242.13669"
           y="-1.5766628"
           width="50"
           height="8"
           rx="4"
           style="fill:#827081;fill-opacity:1" /><rect
           id="rect24"
           fill="#6e07f3"
           x="139.90582"
           y="81.678787"
           width="50"
           height="8"
           rx="4"
           style="fill:#827081;fill-opacity:1" /><rect
           id="rect25"
           fill="#6e07f3"
           x="227.15814"
           y="82.010208"
           width="44.676666"
           height="8"
           rx="4.2302122"
           style="stroke-width:1.22034;fill:#827081;fill-opacity:1" /><rect
           id="rect25-9"
           fill="#6e07f3"
           x="216.98087"
           y="124.02655"
           width="63.901585"
           height="7.3745399"
           rx="3.3244634"
           style="stroke-width:1.46463;fill:#827081;fill-opacity:1"
           transform="matrix(1,0,0.07725943,0.99701102,0,0)" /><rect
           id="rect27"
           fill="#6e07f3"
           x="139.84738"
           y="123.51019"
           width="70"
           height="7.6947656"
           rx="4"
           style="stroke-width:0.980737;fill:#827081;fill-opacity:1" /><rect
           id="rect29"
           fill="#5be9b9"
           x="140"
           y="165.49422"
           width="147.19708"
           height="7.1998916"
           rx="4"
           style="fill:#827081;fill-opacity:1" /><rect
           id="rect31"
           fill="#5be9b9"
           x="139.91298"
           y="206.71516"
           width="132.16"
           height="7.3525"
           rx="4"
           style="fill:#827081;fill-opacity:1" /><rect
           id="rect31-6"
           fill="#5be9b9"
           x="196.80002"
           y="248.08751"
           width="70"
           height="8"
           rx="4"
           style="fill:#2ca58d;fill-opacity:1" /><rect
           id="rect32"
           fill="#6e07f3"
           x="139.94156"
           y="247.9218"
           width="40"
           height="8"
           rx="4"
           style="fill:#827081;fill-opacity:1" /><rect
           id="rect32-8"
           fill="#6e07f3"
           x="140.00002"
           y="248"
           width="40"
           height="8"
           rx="4"
           style="fill:#827081;fill-opacity:1" /><rect
           id="rect32-8-3"
           fill="#6e07f3"
           x="139.86337"
           y="289.81711"
           width="44.883751"
           height="8"
           rx="4"
           style="fill:#827081;fill-opacity:1" /><rect
           id="rect34"
           fill="#5be9b9"
           x="196.43274"
           y="289.76749"
           width="60"
           height="8"
           rx="4"
           style="fill:#2ca58d;fill-opacity:1" /><rect
           id="rect10-5"
           fill="#535b6b"
           opacity="0.54"
           x="65.305244"
           y="206.63087"
           width="48.523441"
           height="7.3895311"
           rx="4" /><rect
           id="rect11-6"
           fill="#535b6b"
           opacity="0.54"
           x="65.610481"
           y="-0.99999821"
           width="48.523438"
           height="7.0842967"
           rx="4" /><rect
           id="rect11-8-7"
           fill="#535b6b"
           opacity="0.54"
           x="65.883774"
           y="40.070015"
           width="47.912971"
           height="7.6947656"
           rx="4" /><rect
           id="rect15-9"
           fill="#535b6b"
           opacity="0.54"
           x="65.000008"
           y="82.052345"
           width="49.133911"
           height="7.3895316"
           rx="4" /><rect
           id="rect16-4"
           fill="#535b6b"
           opacity="0.54"
           x="65.305244"
           y="123.57851"
           width="49.133911"
           height="7.6947575"
           rx="4"
           style="stroke-width:0.962546" /><rect
           id="rect17-1"
           fill="#535b6b"
           opacity="0.54"
           x="65.000008"
           y="165.10469"
           width="49.439144"
           height="7.3895311"
           rx="4" /><rect
           id="rect18-6"
           fill="#535b6b"
           opacity="0.54"
           x="65.000008"
           y="248.46228"
           width="49.439148"
           height="7.3895264"
           rx="4" /><rect
           id="rect19-1"
           fill="#535b6b"
           opacity="0.54"
           x="65.91571"
           y="289.98843"
           width="47.912975"
           height="7.3895311"
           rx="4" /></g></g><g
       id="Group-68"
       transform="matrix(0.1092584,0,0,0.1063125,6.9963528,143.4977)"
       style="stroke-width:1.00157;stroke-dasharray:none"
       inkscape:label="Terminal-white"><path
         d="M 544,46 H -4 v 389.99645 c 0,7.7349 3.13486894,14.73536 8.2031681,19.80239 C 9.2718665,460.86626 16.274497,464 24.009594,464 H 515.99041 c 7.73821,0 14.7393,-3.13372 19.80649,-8.19964 C 540.86602,450.73252 544,443.73071 544,435.99645 Z"
         id="path34"
         stroke="#141c3a"
         stroke-width="8"
         fill="#ffffff"
         style="stroke-width:6.49499;stroke-dasharray:none" /><path
         d="M 518.16052,-4.255836 H 21.839484 c -7.806285,0 -14.868872,3.1600516 -19.9806124,8.2682935 C -3.2554366,9.1232655 -6.4172091,16.184488 -6.4172091,23.98428 V 54.255836 H 546.41721 V 23.98428 c 0,-7.798832 -3.16293,-14.8592015 -8.27705,-19.9698194 -5.11321,-5.1097123 -12.17702,-8.2702966 -19.97964,-8.2702966 z"
         id="path35"
         stroke="#141c3a"
         stroke-width="8"
         fill="#141c3a"
         style="stroke-width:6.49499;stroke-dasharray:none" /><circle
         id="circle35"
         fill="#ffffff"
         cx="39"
         cy="25"
         r="9"
         style="stroke-width:1.00157;stroke-dasharray:none" /><circle
         id="circle36"
         fill="#6e07f3"
         cx="69"
         cy="25"
         r="9"
         style="fill:#827081;fill-opacity:1;stroke-width:1.00157;stroke-dasharray:none" /><circle
         id="circle37"
         fill="#5be9b9"
         cx="99"
         cy="25"
         r="9"
         style="fill:#2ca58d;fill-opacity:1;stroke-width:1.00157;stroke-dasharray:none" /><g
         id="Group-60"
         transform="matrix(1.4971705,0,0,1,36.834998,281.04344)"
         style="stroke-width:0.818555;stroke-dasharray:none"><rect
           id="Rectangle-15"
           fill="#141c3a"
           x="80.960709"
           y="63.323055"
           width="87.83992"
           height="37.227371"
           rx="7.5373197"
           style="stroke-width:0.818555;stroke-dasharray:none"
           ry="0" /><rect
           id="rect40"
           fill="#5be9b9"
           x="-7.3814754"
           y="7.2039275"
           width="114.12502"
           height="37.540668"
           rx="7.2281194"
           style="fill:#2ca58d;fill-opacity:1;stroke-width:0.818555;stroke-dasharray:none" /><rect
           id="rect41"
           fill="#6e07f3"
           x="132.21657"
           y="120.34096"
           width="132.69388"
           height="38.662514"
           rx="6.809299"
           style="fill:#827081;fill-opacity:1;stroke-width:0.818555;stroke-dasharray:none" /></g><path
         style="fill:none;fill-opacity:1;stroke:#2ca58d;stroke-width:8.20078;stroke-dasharray:none;stroke-opacity:1;paint-order:stroke fill markers"
         d="m 275.18436,304.15078 35.20649,-66.02876 75.14925,-12.06718 19.56663,-32.95026 32.00865,-13.25965 24.3432,-45.31881 56.35186,-42.907848"
         id="path4-5"
         sodipodi:nodetypes="ccccccc" /><path
         style="fill:#2ca58d;fill-opacity:1;stroke:#5be9b9;stroke-width:1.00157;stroke-dasharray:none;stroke-opacity:1;paint-order:stroke fill markers"
         id="path5"
         sodipodi:type="arc"
         sodipodi:cx="139.46571"
         sodipodi:cy="183.11105"
         sodipodi:rx="79.370079"
         sodipodi:ry="79.370079"
         sodipodi:start="2.443461"
         sodipodi:end="4.712389"
         sodipodi:arc-type="slice"
         d="M 78.664703,234.12915 A 79.370079,79.370079 0 0 1 67.531994,149.56781 79.370079,79.370079 0 0 1 139.46571,103.74097 v 79.37008 z" /><path
         style="fill:#827081;fill-opacity:1;stroke:#6e07f3;stroke-width:1.00157;stroke-dasharray:none;stroke-opacity:1;paint-order:stroke fill markers"
         id="path5-3"
         sodipodi:type="arc"
         sodipodi:cx="141.89601"
         sodipodi:cy="186.19034"
         sodipodi:rx="79.370079"
         sodipodi:ry="79.370079"
         sodipodi:start="0"
         sodipodi:end="2.443461"
         sodipodi:arc-type="slice"
         d="m 221.26609,186.19034 a 79.370079,79.370079 0 0 1 -52.22391,74.58348 79.370079,79.370079 0 0 1 -87.947179,-23.56538 l 60.801009,-51.0181 z" /><path
         style="fill:#141c3a;fill-opacity:1;stroke:#141c3a;stroke-width:1.00208;stroke-dasharray:none;stroke-opacity:1;paint-order:stroke fill markers"
         id="path5-3-0"
         sodipodi:type="arc"
         sodipodi:cx="143.16042"
         sodipodi:cy="182.6696"
         sodipodi:rx="79.370079"
         sodipodi:ry="79.370079"
         sodipodi:start="4.712389"
         sodipodi:end="0"
         sodipodi:arc-type="slice"
         d="m 143.16042,103.29952 a 79.370079,79.370079 0 0 1 79.37007,79.37008 h -79.37007 z" /></g><g
       id="g2"
       transform="matrix(0.12334002,0,0,0.12476602,52.578775,166.67455)"
       inkscape:label="bot"
       style="stroke-width:0.999589;stroke-dasharray:none"><path
         style="fill:#141c3a;fill-opacity:1;stroke:#000000;stroke-width:0.999589;stroke-dasharray:none;stroke-opacity:1;paint-order:stroke fill markers"
         d="m 14.293287,92.684086 c 0,0 -0.575417,15.701084 19.231857,15.680334 19.832044,-0.0188 19.231857,-15.680334 19.231857,-15.680334 h -3.846372 c 0,0 -0.801507,13.155744 -15.385485,13.169474 C 19.08425,105.8661 18.139658,92.685403 18.139658,92.685403 Z"
         id="path10"
         sodipodi:nodetypes="csccscc" /><path
         d="m 74.423434,69.056921 c -4.040953,3.802561 -11.103987,3.802561 -15.14494,0 -2.020477,-1.901279 -3.142964,-4.436321 -3.142964,-7.133863 0,-2.681294 1.122487,-5.216333 3.142964,-7.117613 2.020476,-1.917531 4.714445,-2.957548 7.563834,-2.957548 2.86666,0 5.560629,1.040017 7.581106,2.957548 2.020476,1.90128 3.142963,4.436319 3.142963,7.117613 0,2.697542 -1.122487,5.232584 -3.142963,7.133863 z M 66.842328,46.079056 c -4.489947,0 -8.720859,1.657527 -11.89836,4.647573 -3.177502,2.990048 -4.938943,6.971362 -4.938943,11.196429 0,4.241317 1.761441,8.222631 4.938943,11.212678 3.177501,2.990048 7.408413,4.631324 11.89836,4.631324 4.507218,0 8.738131,-1.641276 11.915632,-4.631324 3.177502,-2.990047 4.921673,-6.971361 4.921673,-11.212678 0,-4.225067 -1.744171,-8.206381 -4.921673,-11.196429 -3.177501,-2.990046 -7.408414,-4.647573 -11.915632,-4.647573 z M 10.130833,69.056921 c -4.040952,3.802561 -11.10398539,3.802561 -15.1449386,0 -2.0204765,-1.901279 -3.1429635,-4.436321 -3.1429635,-7.133863 0,-2.681294 1.122487,-5.216333 3.1429635,-7.117613 2.0204766,-1.917531 4.71444561,-2.957548 7.5811039,-2.957548 2.8493903,0 5.5433588,1.040017 7.5638347,2.957548 2.037747,1.90128 3.142964,4.436319 3.142964,7.117613 0,2.697542 -1.105217,5.232584 -3.142964,7.133863 z M 2.5669983,46.079056 c -4.5072165,0 -8.7381289,1.657527 -11.9156304,4.647573 -3.1775019,2.990048 -4.9216739,6.971362 -4.9216739,11.196429 0,4.241317 1.744172,8.222631 4.9216739,11.212678 3.1775015,2.990048 7.4084139,4.631324 11.9156304,4.631324 4.4899483,0 8.7208607,-1.641276 11.8983627,-4.631324 3.177502,-2.990047 4.938943,-6.971361 4.938943,-11.212678 0,-4.225067 -1.761441,-8.206381 -4.938943,-11.196429 C 11.287859,47.736583 7.0569466,46.079056 2.5669983,46.079056 Z M 95.923376,116.3066 c 0,0.66626 -0.569878,1.27932 -1.277908,1.27932 H -25.23614 c -0.708031,0 -1.277908,-0.61306 -1.277908,-1.27932 V 33.550106 c 0,-1.023767 0.88072,-1.868779 1.985937,-1.868779 H 93.937437 c 1.105218,0 1.985939,0.845012 1.985939,1.868779 z M 29.126768,17.023594 h 12.692736 c 5.888739,0 10.810413,3.78631 12.29555,8.888891 H 16.831218 c 1.485136,-5.102581 6.40681,-8.888891 12.29555,-8.888891 z m -0.55261,-25.675409 c 0,-3.1688 2.763046,-5.752591 6.130506,-5.752591 3.384731,0 6.130506,2.583791 6.130506,5.752591 0,3.1850508 -2.745775,5.7688419 -6.130506,5.7688419 -3.36746,0 -6.130506,-2.5837911 -6.130506,-5.7688419 z m 65.363279,34.5643 H 60.41825 C 58.8295,17.592352 51.110242,11.254752 41.819504,11.254752 h -4.058221 v -8.79139 c 5.267054,-1.2837705 9.187124,-5.7688418 9.187124,-11.115177 0,-6.353851 -5.491552,-11.521433 -12.243743,-11.521433 -6.752191,0 -12.243742,5.167582 -12.243742,11.521433 0,5.3463352 3.920069,9.8314065 9.187124,11.115177 v 8.79139 h -2.521278 c -9.290739,0 -17.009995,6.3376 -18.598746,14.657733 h -35.056133 c -4.472677,0 -8.116442,3.428804 -8.116442,7.637621 v 79.620904 c 0,3.85131 2.974234,9.7481 7.408413,10.10914 h 38.509937 v 11.52016 h 6.130507 v -11.52016 h 30.600721 v 11.52016 h 6.130505 v -11.52016 h 38.509938 c 4.09276,0 7.408412,-3.12224 7.408412,-6.97355 V 33.550106 c 0,-4.208817 -3.643764,-7.637621 -8.116443,-7.637621 z"
         fill="#dd344c"
         stroke="none"
         pointer-events="all"
         id="path1-4-0"
         style="fill:#141c3a;fill-opacity:1;stroke-width:5.64284;stroke-dasharray:none"
         inkscape:label="path1-4-0"
         sodipodi:nodetypes="ssscscssssssssssscsscscscssssssssssssssssssssccssssssscsccsssccscssssccccccccssss" /></g><g
       id="g3"
       transform="matrix(0.41223939,0,0,0.36992119,240.65543,196.39728)"
       inkscape:label="Server-stack"><g
         id="g10"
         transform="matrix(0.86567315,0,0,1.0398029,-88.677896,-23.363066)"
         inkscape:label="Server"
         style="stroke-width:1.88937;stroke-dasharray:none" /><g
         id="g10-1-8"
         transform="matrix(0.86237479,0,0,1.0043503,-88.934215,-80.223916)"
         inkscape:label="Server"
         style="stroke-width:1.9261;stroke-dasharray:none"><rect
           style="fill:#ffffff;fill-opacity:1;stroke:#141c3a;stroke-width:3.30187984;stroke-dasharray:none;stroke-opacity:1;paint-order:stroke fill markers"
           id="rect12-2-1"
           width="87.214882"
           height="21.895765"
           x="-51.178761"
           y="-9.4415312"
           rx="4.1386766" /><ellipse
           style="fill:#2ca58d;fill-opacity:1;stroke:none;stroke-width:1.2886;stroke-dasharray:none;stroke-opacity:1;paint-order:stroke fill markers"
           id="path14-8-4"
           cx="199.46808"
           cy="158.44917"
           rx="1.078421"
           ry="1.0930052"
           transform="matrix(2.9860672,0,0,2.7828591,-636.76443,-439.39471)" /></g><g
         id="g10-1-8-6"
         transform="matrix(0.86237479,0,0,1.0043503,-88.990078,-51.737492)"
         inkscape:label="Server"
         style="stroke-width:1.9261;stroke-dasharray:none"><rect
           style="fill:#ffffff;fill-opacity:1;stroke:#141c3a;stroke-width:3.30188;stroke-dasharray:none;stroke-opacity:1;paint-order:stroke fill markers"
           id="rect12-2-1-3"
           width="87.214882"
           height="21.895765"
           x="-51.178761"
           y="-9.4415312"
           rx="4.1386766" /><ellipse
           style="fill:#2ca58d;fill-opacity:1;stroke:none;stroke-width:1.2886;stroke-dasharray:none;stroke-opacity:1;paint-order:stroke fill markers"
           id="path14-8-4-0"
           cx="199.46808"
           cy="158.44917"
           rx="1.078421"
           ry="1.0930052"
           transform="matrix(2.9860672,0,0,2.7828591,-636.76443,-439.39471)" /></g><g
         id="g10-1-8-6-4"
         transform="matrix(0.86237479,0,0,1.0043503,-89.016365,-23.39631)"
         inkscape:label="Server"
         style="stroke-width:1.9261;stroke-dasharray:none"><rect
           style="fill:#ffffff;fill-opacity:1;stroke:#141c3a;stroke-width:3.30188;stroke-dasharray:none;stroke-opacity:1;paint-order:stroke fill markers"
           id="rect12-2-1-3-2"
           width="87.214882"
           height="21.895765"
           x="-51.178761"
           y="-9.4415312"
           rx="4.1386766" /><ellipse
           style="fill:#2ca58d;fill-opacity:1;stroke:none;stroke-width:1.2886;stroke-dasharray:none;stroke-opacity:1;paint-order:stroke fill markers"
           id="path14-8-4-0-1"
           cx="199.46808"
           cy="158.44917"
           rx="1.078421"
           ry="1.0930052"
           transform="matrix(2.9860672,0,0,2.7828591,-636.76443,-439.39471)" /></g></g></g></svg>
